# ProBuilder 5.0.6
# https://unity3d.com/unity/features/worldbuilding/probuilder
# 4/23/2023 12:59:29 PM

mtllib ./InverseCylinder.mtl
o InverseCylinder

g Cylinder
v 0.4755286 -1 -0.1545086
v 0.4755286 1 -0.1545086
v 0.4045088 1 -0.2938928
v 0.4045088 -1 -0.2938928
v 0.2938928 1 -0.4045087
v 0.2938928 -1 -0.4045087
v 0.1545086 1 -0.4755285
v 0.1545086 -1 -0.4755285
v 0 1 -0.5000002
v 0 -1 -0.5000002
v -0.1545086 1 -0.4755285
v -0.1545086 -1 -0.4755285
v -0.2938927 1 -0.4045087
v -0.2938927 -1 -0.4045087
v -0.4045086 1 -0.2938927
v -0.4045086 -1 -0.2938927
v -0.4755284 1 -0.1545085
v -0.4755284 -1 -0.1545085
v -0.5000001 1 0
v -0.5000001 -1 0
v -0.4755284 1 0.1545085
v -0.4755284 -1 0.1545085
v -0.4045086 1 0.2938927
v -0.4045086 -1 0.2938927
v -0.2938927 1 0.4045086
v -0.2938927 -1 0.4045086
v -0.1545085 1 0.4755283
v -0.1545085 -1 0.4755283
v -1.490116E-08 1 0.5000001
v -1.490116E-08 -1 0.5000001
v 0.1545085 1 0.4755283
v 0.1545085 -1 0.4755283
v 0.2938926 1 0.4045085
v 0.2938926 -1 0.4045085
v 0.4045085 1 0.2938927
v 0.4045085 -1 0.2938927
v 0.4755283 1 0.1545085
v 0.4755283 -1 0.1545085
v 0.5 1 0
v 0.5 -1 0
v 0 1 0
v 0 -1 0

vt 0.1005999 0.0004537381
vt 0.1005996 0.9994308
vt 0.2005053 0.9994308
vt 0.2005054 0.0004537381
vt 0.300411 0.9994308
vt 0.300411 0.0004537381
vt 0.4003165 0.9994308
vt 0.4003165 0.0004537381
vt 0.500222 0.9994308
vt 0.500222 0.0004537381
vt 0.6001273 0.9994308
vt 0.6001273 0.0004537381
vt 0.7000328 0.9994308
vt 0.7000327 0.0004537381
vt 0.7999381 0.9994308
vt 0.799938 0.0004537381
vt 0.8998435 0.9994308
vt 0.8998432 0.0004537381
vt 0.9997491 0.9994308
vt 0.999749 0.0004537381
vt 0.0006936856 0.0004537381
vt 0.0006940446 0.9994308
vt 0.9720591 0.3466357
vt 0.5002245 0.4999442
vt 0.9963408 0.4999439
vt 0.901591 0.2083343
vt 0.9720596 0.6532523
vt 0.7918344 0.09857755
vt 0.9015915 0.7915539
vt 0.6535327 0.02810941
vt 0.7918347 0.9013107
vt 0.5002242 0.003827723
vt 0.653533 0.971779
vt 0.3469159 0.02810938
vt 0.5002243 0.9960608
vt 0.2086144 0.09857755
vt 0.3469157 0.971779
vt 0.09885782 0.2083341
vt 0.2086142 0.9013106
vt 0.02838971 0.3466356
vt 0.0988576 0.7915537
vt 0.004108027 0.4999439
vt 0.0283896 0.6532522

vn -0.9510568 0 0.309016
vn -0.809017 0 0.5877853
vn -0.5877851 0 0.8090171
vn -0.3090168 0 0.9510565
vn 9.806488E-08 0 1
vn 0.3090171 0 0.9510564
vn 0.5877855 0 0.8090168
vn 0.8090171 0 0.5877851
vn 0.9510565 0 0.3090169
vn 1 0 0
vn 0.9510565 0 -0.309017
vn 0.8090169 0 -0.5877854
vn 0.5877852 0 -0.8090171
vn 0.3090169 0 -0.9510565
vn -9.806489E-08 0 -1
vn -0.3090171 0 -0.9510565
vn -0.5877852 0 -0.809017
vn -0.809017 0 -0.5877852
vn -0.9510565 0 -0.3090169
vn -1 0 -9.806487E-07
vn 0 -1 0
vn 0 1 0

usemtl Lit
f 7/33/21 41/24/21 9/35/21
f 17/43/21 41/24/21 19/42/21
f 10/35/22 42/24/22 8/37/22
f 28/30/22 42/24/22 26/28/22
f 16/29/22 42/24/22 14/31/22
f 22/23/22 42/24/22 20/25/22
f 2/2/1 3/3/2 4/4/2
f 4/4/2 1/1/1 2/2/1
f 3/3/2 5/5/3 6/6/3
f 6/6/3 4/4/2 3/3/2
f 5/5/3 7/7/4 8/8/4
f 8/8/4 6/6/3 5/5/3
f 7/7/4 9/9/5 10/10/5
f 10/10/5 8/8/4 7/7/4
f 9/9/5 11/11/6 12/12/6
f 12/12/6 10/10/5 9/9/5
f 11/11/6 13/13/7 14/14/7
f 14/14/7 12/12/6 11/11/6
f 13/13/7 15/15/8 16/16/8
f 16/16/8 14/14/7 13/13/7
f 15/15/8 17/17/9 18/18/9
f 18/18/9 16/16/8 15/15/8
f 17/17/9 19/19/10 20/20/10
f 20/20/10 18/18/9 17/17/9
f 19/22/10 21/2/11 22/1/11
f 22/1/11 20/21/10 19/22/10
f 21/2/11 23/3/12 24/4/12
f 24/4/12 22/1/11 21/2/11
f 23/3/12 25/5/13 26/6/13
f 26/6/13 24/4/12 23/3/12
f 25/5/13 27/7/14 28/8/14
f 28/8/14 26/6/13 25/5/13
f 27/7/14 29/9/15 30/10/15
f 30/10/15 28/8/14 27/7/14
f 29/9/15 31/11/16 32/12/16
f 32/12/16 30/10/15 29/9/15
f 31/11/16 33/13/17 34/14/17
f 34/14/17 32/12/16 31/11/16
f 33/13/17 35/15/18 36/16/18
f 36/16/18 34/14/17 33/13/17
f 35/15/18 37/17/19 38/18/19
f 38/18/19 36/16/18 35/15/18
f 37/17/19 39/19/20 40/20/20
f 40/20/20 38/18/19 37/17/19
f 39/22/20 2/2/1 1/1/1
f 1/1/1 40/21/20 39/22/20
f 37/23/21 35/26/21 41/24/21
f 41/24/21 39/25/21 37/23/21
f 39/25/21 41/24/21 3/29/21
f 3/29/21 2/27/21 39/25/21
f 33/28/21 31/30/21 41/24/21
f 41/24/21 35/26/21 33/28/21
f 3/29/21 41/24/21 7/33/21
f 7/33/21 5/31/21 3/29/21
f 29/32/21 27/34/21 41/24/21
f 41/24/21 31/30/21 29/32/21
f 25/36/21 23/38/21 41/24/21
f 41/24/21 27/34/21 25/36/21
f 9/35/21 41/24/21 13/39/21
f 13/39/21 11/37/21 9/35/21
f 21/40/21 19/42/21 41/24/21
f 41/24/21 23/38/21 21/40/21
f 13/39/21 41/24/21 17/43/21
f 17/43/21 15/41/21 13/39/21
f 40/42/22 42/24/22 36/38/22
f 36/38/22 38/40/22 40/42/22
f 1/43/22 4/41/22 42/24/22
f 42/24/22 40/42/22 1/43/22
f 36/38/22 42/24/22 32/34/22
f 32/34/22 34/36/22 36/38/22
f 6/39/22 8/37/22 42/24/22
f 42/24/22 4/41/22 6/39/22
f 32/34/22 42/24/22 28/30/22
f 28/30/22 30/32/22 32/34/22
f 12/33/22 14/31/22 42/24/22
f 42/24/22 10/35/22 12/33/22
f 26/28/22 42/24/22 22/23/22
f 22/23/22 24/26/22 26/28/22
f 18/27/22 20/25/22 42/24/22
f 42/24/22 16/29/22 18/27/22

